# xmcd
#
# Track frame offsets: 
#        150
#        16345
#        30387
#        46325
#        61555
#        77297
#        90747
#        107447
#        123032
#        136912
#        154612
#        168390
#
# Disc length: 2502 seconds
#
# Revision: 0
# Processed by: cddbd v1.4b41PL3 Copyright (c) Steve Scherf et al.
# Submitted via: ExactAudioCopy v0.90a11
#
DISCID=7809c40c
DTITLE=Tony Wegas - ...für Dich
DYEAR=1900
DGENRE=
TTITLE0=Eine Melodie für dich
TTITLE1=Conchita
TTITLE2=Adios Maria
TTITLE3=Unsere Insel
TTITLE4=Ich will dich wiederseh'n
TTITLE5=La Fiesta
TTITLE6=Allein mit dem Meer
TTITLE7=Quando
TTITLE8=Bis ans Ende meiner Zeit
TTITLE9=Vom Winde verweht
TTITLE10=Ich möchte nur wissen...
TTITLE11=Che sara
EXTD=
EXTT0=
EXTT1=
EXTT2=
EXTT3=
EXTT4=
EXTT5=
EXTT6=
EXTT7=
EXTT8=
EXTT9=
EXTT10=
EXTT11=
PLAYORDER=
